<mxfile host="65bd71144e">
    <diagram id="tnScOSjKDVJIDMYRz4AX" name="Страница — 1">
        <mxGraphModel dx="1364" dy="350" grid="1" gridSize="10" guides="1" tooltips="1" connect="1" arrows="1" fold="1" page="1" pageScale="1" pageWidth="850" pageHeight="1100" math="0" shadow="0">
            <root>
                <mxCell id="0"/>
                <mxCell id="1" parent="0"/>
                <mxCell id="210" value="" style="rounded=0;whiteSpace=wrap;html=1;imageHeight=24;" parent="1" vertex="1">
                    <mxGeometry x="316" y="90" width="212" height="368" as="geometry"/>
                </mxCell>
                <mxCell id="211" value="" style="rounded=0;whiteSpace=wrap;html=1;" parent="1" vertex="1">
                    <mxGeometry x="316" y="90" width="212" height="40" as="geometry"/>
                </mxCell>
                <mxCell id="212" value="" style="rounded=0;whiteSpace=wrap;html=1;imageHeight=24;" parent="1" vertex="1">
                    <mxGeometry x="20" y="90" width="212" height="368" as="geometry"/>
                </mxCell>
                <mxCell id="213" value="" style="rounded=0;whiteSpace=wrap;html=1;imageHeight=24;" parent="1" vertex="1">
                    <mxGeometry x="590" y="90" width="212" height="368" as="geometry"/>
                </mxCell>
                <mxCell id="214" value="" style="rounded=0;whiteSpace=wrap;html=1;fillColor=#f5f5f5;fontColor=#333333;strokeColor=#666666;" parent="1" vertex="1">
                    <mxGeometry x="327" y="160" width="190" height="50" as="geometry"/>
                </mxCell>
                <mxCell id="215" value="" style="rounded=0;whiteSpace=wrap;html=1;fillColor=#f5f5f5;fontColor=#333333;strokeColor=#666666;" parent="1" vertex="1">
                    <mxGeometry x="327" y="220" width="190" height="50" as="geometry"/>
                </mxCell>
                <mxCell id="216" value="" style="rounded=0;whiteSpace=wrap;html=1;fillColor=#f5f5f5;fontColor=#333333;strokeColor=#666666;" parent="1" vertex="1">
                    <mxGeometry x="327" y="280" width="190" height="50" as="geometry"/>
                </mxCell>
                <mxCell id="217" value="" style="group" parent="1" vertex="1" connectable="0">
                    <mxGeometry x="316" y="418" width="212" height="40" as="geometry"/>
                </mxCell>
                <mxCell id="218" value="" style="rounded=0;whiteSpace=wrap;html=1;" parent="217" vertex="1">
                    <mxGeometry width="212" height="40" as="geometry"/>
                </mxCell>
                <mxCell id="219" value="" style="html=1;verticalLabelPosition=bottom;align=center;labelBackgroundColor=#ffffff;verticalAlign=top;strokeWidth=2;strokeColor=#000000;shadow=0;dashed=0;shape=mxgraph.ios7.icons.user;" parent="217" vertex="1">
                    <mxGeometry x="160" y="7.5" width="25" height="25" as="geometry"/>
                </mxCell>
                <mxCell id="220" value="" style="html=1;verticalLabelPosition=bottom;align=center;labelBackgroundColor=#ffffff;verticalAlign=top;strokeWidth=2;strokeColor=#000000;shadow=0;dashed=0;shape=mxgraph.ios7.icons.looking_glass;" parent="217" vertex="1">
                    <mxGeometry x="30" y="7.5" width="25" height="25" as="geometry"/>
                </mxCell>
                <mxCell id="221" value="" style="html=1;verticalLabelPosition=bottom;align=center;labelBackgroundColor=#ffffff;verticalAlign=top;strokeWidth=2;strokeColor=#ff8000;shadow=0;dashed=0;shape=mxgraph.ios7.icons.home;" parent="217" vertex="1">
                    <mxGeometry x="93.5" y="7.5" width="25" height="25" as="geometry"/>
                </mxCell>
                <mxCell id="222" value="" style="group" parent="1" vertex="1" connectable="0">
                    <mxGeometry x="590" y="420" width="212" height="40" as="geometry"/>
                </mxCell>
                <mxCell id="223" value="" style="rounded=0;whiteSpace=wrap;html=1;" parent="222" vertex="1">
                    <mxGeometry width="212" height="40" as="geometry"/>
                </mxCell>
                <mxCell id="224" value="" style="html=1;verticalLabelPosition=bottom;align=center;labelBackgroundColor=#ffffff;verticalAlign=top;strokeWidth=2;strokeColor=#ff8000;shadow=0;dashed=0;shape=mxgraph.ios7.icons.user;" parent="222" vertex="1">
                    <mxGeometry x="160" y="7.5" width="25" height="25" as="geometry"/>
                </mxCell>
                <mxCell id="225" value="" style="html=1;verticalLabelPosition=bottom;align=center;labelBackgroundColor=#ffffff;verticalAlign=top;strokeWidth=2;strokeColor=#000000;shadow=0;dashed=0;shape=mxgraph.ios7.icons.looking_glass;" parent="222" vertex="1">
                    <mxGeometry x="30" y="7.5" width="25" height="25" as="geometry"/>
                </mxCell>
                <mxCell id="226" value="" style="html=1;verticalLabelPosition=bottom;align=center;labelBackgroundColor=#ffffff;verticalAlign=top;strokeWidth=2;strokeColor=#000000;shadow=0;dashed=0;shape=mxgraph.ios7.icons.home;" parent="222" vertex="1">
                    <mxGeometry x="93.5" y="7.5" width="25" height="25" as="geometry"/>
                </mxCell>
                <mxCell id="227" value="" style="rounded=0;whiteSpace=wrap;html=1;fillColor=#f5f5f5;fontColor=#333333;strokeColor=#666666;" parent="1" vertex="1">
                    <mxGeometry x="327" y="340" width="190" height="50" as="geometry"/>
                </mxCell>
                <mxCell id="228" value="Название и логотип" style="text;html=1;align=center;verticalAlign=middle;whiteSpace=wrap;rounded=0;" parent="1" vertex="1">
                    <mxGeometry x="316" y="95" width="129" height="30" as="geometry"/>
                </mxCell>
                <mxCell id="229" value="Мероприятия" style="text;html=1;align=center;verticalAlign=middle;whiteSpace=wrap;rounded=0;" parent="1" vertex="1">
                    <mxGeometry x="356.5" y="130" width="129" height="30" as="geometry"/>
                </mxCell>
                <mxCell id="230" value="&lt;div align=&quot;left&quot;&gt;Название мероприятия&lt;/div&gt;&lt;div align=&quot;left&quot;&gt;Дата&lt;br&gt;Место проведения&lt;br&gt;&lt;/div&gt;" style="text;html=1;align=left;verticalAlign=middle;whiteSpace=wrap;rounded=0;" parent="1" vertex="1">
                    <mxGeometry x="338" y="170" width="158.25" height="30" as="geometry"/>
                </mxCell>
                <mxCell id="231" value="&lt;div align=&quot;left&quot;&gt;Название мероприятия&lt;/div&gt;&lt;div align=&quot;left&quot;&gt;Дата&lt;br&gt;Место проведения&lt;br&gt;&lt;/div&gt;" style="text;html=1;align=left;verticalAlign=middle;whiteSpace=wrap;rounded=0;" parent="1" vertex="1">
                    <mxGeometry x="338" y="230" width="158.25" height="30" as="geometry"/>
                </mxCell>
                <mxCell id="232" value="&lt;div align=&quot;left&quot;&gt;Название мероприятия&lt;/div&gt;&lt;div align=&quot;left&quot;&gt;Дата&lt;br&gt;Место проведения&lt;br&gt;&lt;/div&gt;" style="text;html=1;align=left;verticalAlign=middle;whiteSpace=wrap;rounded=0;" parent="1" vertex="1">
                    <mxGeometry x="338" y="290" width="158.25" height="30" as="geometry"/>
                </mxCell>
                <mxCell id="233" value="&lt;div align=&quot;left&quot;&gt;Название мероприятия&lt;/div&gt;&lt;div align=&quot;left&quot;&gt;Дата&lt;br&gt;Место проведения&lt;br&gt;&lt;/div&gt;" style="text;html=1;align=left;verticalAlign=middle;whiteSpace=wrap;rounded=0;" parent="1" vertex="1">
                    <mxGeometry x="338" y="350" width="158.25" height="30" as="geometry"/>
                </mxCell>
                <mxCell id="234" value="" style="endArrow=open;html=1;rounded=0;endFill=0;" parent="1" edge="1">
                    <mxGeometry width="50" height="50" relative="1" as="geometry">
                        <mxPoint x="50" y="109.80999999999995" as="sourcePoint"/>
                        <mxPoint x="30" y="109.80999999999995" as="targetPoint"/>
                    </mxGeometry>
                </mxCell>
                <mxCell id="235" value="&lt;div align=&quot;center&quot;&gt;&lt;font style=&quot;font-size: 15px;&quot;&gt;Название мероприятия&lt;/font&gt;&lt;/div&gt;" style="text;html=1;align=center;verticalAlign=middle;whiteSpace=wrap;rounded=0;" parent="1" vertex="1">
                    <mxGeometry x="31" y="130" width="189" height="30" as="geometry"/>
                </mxCell>
                <mxCell id="236" value="Дата" style="text;html=1;align=left;verticalAlign=middle;whiteSpace=wrap;rounded=0;" parent="1" vertex="1">
                    <mxGeometry x="56" y="160" width="140" height="30" as="geometry"/>
                </mxCell>
                <mxCell id="237" value="Место проведения" style="text;html=1;align=left;verticalAlign=middle;whiteSpace=wrap;rounded=0;" parent="1" vertex="1">
                    <mxGeometry x="56" y="180" width="140" height="30" as="geometry"/>
                </mxCell>
                <mxCell id="238" value="" style="group" parent="1" vertex="1" connectable="0">
                    <mxGeometry x="60" y="400" width="130" height="30" as="geometry"/>
                </mxCell>
                <mxCell id="239" value="" style="rounded=1;whiteSpace=wrap;html=1;" parent="238" vertex="1">
                    <mxGeometry width="130" height="30" as="geometry"/>
                </mxCell>
                <mxCell id="240" value="Зарегистрироваться" style="text;html=1;align=center;verticalAlign=middle;whiteSpace=wrap;rounded=0;" parent="238" vertex="1">
                    <mxGeometry x="6" width="120" height="30" as="geometry"/>
                </mxCell>
                <mxCell id="241" value="" style="group" parent="1" vertex="1" connectable="0">
                    <mxGeometry x="41" y="320" width="170" height="50" as="geometry"/>
                </mxCell>
                <mxCell id="242" value="" style="rounded=0;whiteSpace=wrap;html=1;fillColor=#f5f5f5;fontColor=#333333;strokeColor=#666666;" parent="241" vertex="1">
                    <mxGeometry y="10" width="170" height="50" as="geometry"/>
                </mxCell>
                <mxCell id="243" value="Информация об организаторах" style="text;html=1;align=center;verticalAlign=middle;whiteSpace=wrap;rounded=0;" parent="241" vertex="1">
                    <mxGeometry x="30" y="20" width="110" height="30" as="geometry"/>
                </mxCell>
                <mxCell id="244" value="" style="group" parent="1" vertex="1" connectable="0">
                    <mxGeometry x="41" y="220" width="170" height="100" as="geometry"/>
                </mxCell>
                <mxCell id="245" value="" style="rounded=0;whiteSpace=wrap;html=1;fillColor=#f5f5f5;fontColor=#333333;strokeColor=#666666;" parent="244" vertex="1">
                    <mxGeometry width="170" height="100" as="geometry"/>
                </mxCell>
                <mxCell id="246" value="Описание мероприятия" style="text;html=1;align=center;verticalAlign=middle;whiteSpace=wrap;rounded=0;" parent="244" vertex="1">
                    <mxGeometry x="40" y="40" width="90" height="30" as="geometry"/>
                </mxCell>
                <mxCell id="247" value="&lt;font style=&quot;font-size: 14px;&quot;&gt;Профиль&lt;/font&gt;" style="text;html=1;align=center;verticalAlign=middle;whiteSpace=wrap;rounded=0;" parent="1" vertex="1">
                    <mxGeometry x="631" y="110" width="129" height="30" as="geometry"/>
                </mxCell>
                <mxCell id="248" value="" style="group" parent="1" vertex="1" connectable="0">
                    <mxGeometry x="610" y="290" width="170" height="35" as="geometry"/>
                </mxCell>
                <mxCell id="249" value="" style="rounded=1;whiteSpace=wrap;html=1;" parent="248" vertex="1">
                    <mxGeometry width="170" height="35" as="geometry"/>
                </mxCell>
                <mxCell id="250" value="История мероприятий" style="text;html=1;align=center;verticalAlign=middle;whiteSpace=wrap;rounded=0;" parent="248" vertex="1">
                    <mxGeometry x="17.98941798941799" y="2.5" width="134.92063492063494" height="30" as="geometry"/>
                </mxCell>
                <mxCell id="251" value="" style="group" parent="1" vertex="1" connectable="0">
                    <mxGeometry x="610" y="240" width="170" height="35" as="geometry"/>
                </mxCell>
                <mxCell id="252" value="" style="rounded=1;whiteSpace=wrap;html=1;" parent="251" vertex="1">
                    <mxGeometry width="170" height="35" as="geometry"/>
                </mxCell>
                <mxCell id="253" value="Календарь мероприятий" style="text;html=1;align=center;verticalAlign=middle;whiteSpace=wrap;rounded=0;" parent="251" vertex="1">
                    <mxGeometry x="17.99" y="2.5" width="142.01" height="30" as="geometry"/>
                </mxCell>
                <mxCell id="254" value="" style="group" parent="1" vertex="1" connectable="0">
                    <mxGeometry x="601" y="160" width="190" height="60" as="geometry"/>
                </mxCell>
                <mxCell id="255" value="" style="rounded=0;whiteSpace=wrap;html=1;fillColor=#f5f5f5;fontColor=#333333;strokeColor=#666666;" parent="254" vertex="1">
                    <mxGeometry y="-10" width="190" height="70" as="geometry"/>
                </mxCell>
                <mxCell id="256" value="Имя&lt;br&gt;E-mail&lt;br&gt;Роль: участник" style="text;html=1;align=left;verticalAlign=middle;whiteSpace=wrap;rounded=0;" parent="254" vertex="1">
                    <mxGeometry x="9" width="170" height="50" as="geometry"/>
                </mxCell>
                <mxCell id="257" value="" style="html=1;verticalLabelPosition=bottom;align=center;labelBackgroundColor=#ffffff;verticalAlign=top;strokeWidth=2;strokeColor=#000000;shadow=0;dashed=0;shape=mxgraph.ios7.icons.settings;" parent="1" vertex="1">
                    <mxGeometry x="770" y="102.5" width="15" height="15" as="geometry"/>
                </mxCell>
                <mxCell id="258" value="" style="endArrow=classic;html=1;rounded=0;exitX=0.869;exitY=0.483;exitDx=0;exitDy=0;exitPerimeter=0;entryX=-0.002;entryY=0.112;entryDx=0;entryDy=0;entryPerimeter=0;edgeStyle=orthogonalEdgeStyle;curved=1;" parent="1" source="219" target="213" edge="1">
                    <mxGeometry width="50" height="50" relative="1" as="geometry">
                        <mxPoint x="460" y="312" as="sourcePoint"/>
                        <mxPoint x="510" y="262" as="targetPoint"/>
                    </mxGeometry>
                </mxCell>
                <mxCell id="259" value="" style="endArrow=classic;html=1;rounded=0;entryX=0.991;entryY=0.409;entryDx=0;entryDy=0;edgeStyle=orthogonalEdgeStyle;curved=1;entryPerimeter=0;exitX=0;exitY=0.5;exitDx=0;exitDy=0;" parent="1" source="227" target="212" edge="1">
                    <mxGeometry width="50" height="50" relative="1" as="geometry">
                        <mxPoint x="360" y="450" as="sourcePoint"/>
                        <mxPoint x="262" y="192" as="targetPoint"/>
                        <Array as="points">
                            <mxPoint x="300" y="365"/>
                            <mxPoint x="300" y="241"/>
                        </Array>
                    </mxGeometry>
                </mxCell>
                <mxCell id="260" value="Возврат с экрана осуществляется на предыдущий экран" style="text;html=1;align=right;verticalAlign=middle;whiteSpace=wrap;rounded=0;" parent="1" vertex="1">
                    <mxGeometry x="-70" y="90" width="90" height="80" as="geometry"/>
                </mxCell>
                <mxCell id="261" value="&lt;div&gt;Переход&lt;/div&gt;&lt;div&gt;на&lt;/div&gt;&lt;div&gt;экран&lt;/div&gt;&lt;div&gt;Профиля&lt;br&gt;&lt;/div&gt;" style="text;html=1;align=center;verticalAlign=middle;resizable=0;points=[];autosize=1;strokeColor=none;fillColor=none;" parent="1" vertex="1">
                    <mxGeometry x="520" y="380" width="70" height="70" as="geometry"/>
                </mxCell>
                <mxCell id="262" value="/events" style="text;html=1;align=center;verticalAlign=middle;whiteSpace=wrap;rounded=0;" parent="1" vertex="1">
                    <mxGeometry x="316" y="60" width="60" height="30" as="geometry"/>
                </mxCell>
                <mxCell id="263" value="/users/{id}" style="text;html=1;align=center;verticalAlign=middle;whiteSpace=wrap;rounded=0;" parent="1" vertex="1">
                    <mxGeometry x="590" y="60" width="60" height="30" as="geometry"/>
                </mxCell>
                <mxCell id="264" value="/events/{id}" style="text;html=1;align=center;verticalAlign=middle;whiteSpace=wrap;rounded=0;" parent="1" vertex="1">
                    <mxGeometry x="20" y="60" width="74" height="30" as="geometry"/>
                </mxCell>
                <mxCell id="265" value="&lt;div align=&quot;left&quot;&gt;&lt;b&gt;&lt;font style=&quot;font-size: 16px;&quot;&gt;Экран Ленты мероприятий&lt;br&gt;&lt;/font&gt;&lt;/b&gt;&lt;/div&gt;" style="text;html=1;align=left;verticalAlign=middle;whiteSpace=wrap;rounded=0;" parent="1" vertex="1">
                    <mxGeometry x="310" y="30" width="224" height="30" as="geometry"/>
                </mxCell>
                <mxCell id="266" value="&lt;div align=&quot;left&quot;&gt;&lt;b&gt;&lt;font style=&quot;font-size: 16px;&quot;&gt;Экран Профиля участника&lt;br&gt;&lt;/font&gt;&lt;/b&gt;&lt;/div&gt;" style="text;html=1;align=left;verticalAlign=middle;whiteSpace=wrap;rounded=0;" parent="1" vertex="1">
                    <mxGeometry x="590" y="30" width="224" height="30" as="geometry"/>
                </mxCell>
                <mxCell id="267" value="&lt;div align=&quot;left&quot;&gt;&lt;b&gt;&lt;font style=&quot;font-size: 16px;&quot;&gt;Экран Карточки мероприятия&lt;br&gt;&lt;/font&gt;&lt;/b&gt;&lt;/div&gt;" style="text;html=1;align=left;verticalAlign=middle;whiteSpace=wrap;rounded=0;" parent="1" vertex="1">
                    <mxGeometry x="38" y="30" width="256" height="30" as="geometry"/>
                </mxCell>
                <mxCell id="268" value="&#10;&lt;div align=&quot;left&quot;&gt;Переход на экран&lt;/div&gt;&lt;div align=&quot;left&quot;&gt;Карточка мероприятия&lt;br&gt;&lt;/div&gt;&#10;&#10;" style="text;html=1;align=center;verticalAlign=middle;whiteSpace=wrap;rounded=0;" parent="1" vertex="1">
                    <mxGeometry x="250" y="190" width="50" height="30" as="geometry"/>
                </mxCell>
                <mxCell id="269" value="&lt;div align=&quot;right&quot;&gt;После нажатия на кнопку &quot;Зарегистрироваться&quot; (в случае успешной регистрации) надпись меняется на &quot;Отменить регистрацию&quot;&lt;/div&gt;" style="text;html=1;align=right;verticalAlign=middle;whiteSpace=wrap;rounded=0;" parent="1" vertex="1">
                    <mxGeometry x="-130" y="360" width="150" height="90" as="geometry"/>
                </mxCell>
                <mxCell id="270" value="&lt;div align=&quot;left&quot;&gt;При нажатии на иконку Шестеренки появляется возможность редактирования и удаления профиля&lt;/div&gt;" style="text;html=1;align=left;verticalAlign=middle;whiteSpace=wrap;rounded=0;" parent="1" vertex="1">
                    <mxGeometry x="802" y="90" width="98" height="120" as="geometry"/>
                </mxCell>
            </root>
        </mxGraphModel>
    </diagram>
</mxfile>